<mxfile host="Electron" modified="2023-08-27T19:09:40.714Z" agent="Mozilla/5.0 (Macintosh; Intel Mac OS X 10_15_7) AppleWebKit/537.36 (KHTML, like Gecko) draw.io/21.2.8 Chrome/112.0.5615.165 Electron/24.2.0 Safari/537.36" etag="6Cz7Y0k8GTWWSf4y6-SH" version="21.2.8" type="device">
  <diagram name="fast-n-foodious-clean" id="T9hvICRqtUGCdK5VCPla">
    <mxGraphModel dx="3176" dy="1056" grid="0" gridSize="10" guides="1" tooltips="1" connect="1" arrows="1" fold="1" page="1" pageScale="1" pageWidth="850" pageHeight="1100" math="0" shadow="0">
      <root>
        <mxCell id="0" />
        <mxCell id="1" parent="0" />
        <mxCell id="NwU6mXfWbottB9PWC3_L-42" value="" style="rounded=0;whiteSpace=wrap;html=1;strokeColor=#BDBDBD;fillColor=#E6E6E6;fontColor=#333333;" vertex="1" parent="1">
          <mxGeometry x="-813" y="514" width="769" height="215" as="geometry" />
        </mxCell>
        <mxCell id="NwU6mXfWbottB9PWC3_L-1" value="" style="shape=image;verticalLabelPosition=bottom;labelBackgroundColor=default;verticalAlign=top;aspect=fixed;imageAspect=0;image=file:///Users/renatorodrigues/Estudos/PosTech%20-%20SOAT/FASE%201%20-%20WELCOME%20TO%20SOFTWARE%20ARCHITECTURE/Tech%20Challenge/fast-n-foodious/docs/diagramas/fast-n-foodious-clean.png;imageBorder=#DEDEDE;" vertex="1" parent="1">
          <mxGeometry x="-813" y="46" width="769.13" height="469" as="geometry" />
        </mxCell>
        <mxCell id="NwU6mXfWbottB9PWC3_L-2" value="" style="rounded=0;whiteSpace=wrap;html=1;strokeColor=none;" vertex="1" parent="1">
          <mxGeometry x="-120" y="93" width="58" height="40" as="geometry" />
        </mxCell>
        <mxCell id="NwU6mXfWbottB9PWC3_L-3" value="" style="rounded=0;whiteSpace=wrap;html=1;strokeColor=none;" vertex="1" parent="1">
          <mxGeometry x="-126" y="190" width="58" height="40" as="geometry" />
        </mxCell>
        <mxCell id="NwU6mXfWbottB9PWC3_L-4" value="" style="rounded=0;whiteSpace=wrap;html=1;strokeColor=none;" vertex="1" parent="1">
          <mxGeometry x="-135" y="302" width="58" height="40" as="geometry" />
        </mxCell>
        <mxCell id="NwU6mXfWbottB9PWC3_L-5" value="" style="rounded=0;whiteSpace=wrap;html=1;strokeColor=none;" vertex="1" parent="1">
          <mxGeometry x="-145" y="404" width="58" height="40" as="geometry" />
        </mxCell>
        <mxCell id="xNWUwTir-geYUf0pCN78-83" value="MODULES" style="text;html=1;align=center;verticalAlign=middle;resizable=0;points=[];autosize=1;strokeColor=none;fillColor=none;fontStyle=1;fontSize=55;fontColor=#BDBDBD;" parent="1" vertex="1">
          <mxGeometry x="-812.0024038461538" y="516" width="293" height="78" as="geometry" />
        </mxCell>
        <mxCell id="NwU6mXfWbottB9PWC3_L-41" value="" style="group" vertex="1" connectable="0" parent="1">
          <mxGeometry x="-794.9951442307693" y="538" width="739.0028846153846" height="172" as="geometry" />
        </mxCell>
        <mxCell id="xNWUwTir-geYUf0pCN78-62" value="&lt;font color=&quot;#6c8ebf&quot;&gt;MAIN&lt;/font&gt;" style="rounded=0;whiteSpace=wrap;html=1;fillColor=none;strokeColor=#6c8ebf;fontStyle=3;fontSize=16;dashed=1;" parent="NwU6mXfWbottB9PWC3_L-41" vertex="1">
          <mxGeometry x="272.00514423076925" y="9" width="153.72" height="29" as="geometry" />
        </mxCell>
        <mxCell id="xNWUwTir-geYUf0pCN78-64" value="&lt;font color=&quot;#05a794&quot;&gt;APPLICATION&lt;/font&gt;" style="rounded=0;whiteSpace=wrap;html=1;fillColor=none;strokeColor=#05a794;fontStyle=3;fontSize=16;dashed=1;" parent="NwU6mXfWbottB9PWC3_L-41" vertex="1">
          <mxGeometry x="182.00216346153832" y="137" width="153.72" height="29" as="geometry" />
        </mxCell>
        <mxCell id="xNWUwTir-geYUf0pCN78-65" value="&lt;font color=&quot;#ed8f01&quot;&gt;ENTERPRISE&lt;/font&gt;" style="rounded=0;whiteSpace=wrap;html=1;fillColor=none;strokeColor=#ed8f01;fontStyle=3;fontSize=16;dashed=1;" parent="NwU6mXfWbottB9PWC3_L-41" vertex="1">
          <mxGeometry x="363.2806250000001" y="137" width="153.72" height="29" as="geometry" />
        </mxCell>
        <mxCell id="NwU6mXfWbottB9PWC3_L-38" style="edgeStyle=orthogonalEdgeStyle;rounded=0;orthogonalLoop=1;jettySize=auto;html=1;dashed=1;strokeColor=#05a794;" edge="1" parent="NwU6mXfWbottB9PWC3_L-41" source="xNWUwTir-geYUf0pCN78-64" target="xNWUwTir-geYUf0pCN78-65">
          <mxGeometry relative="1" as="geometry" />
        </mxCell>
        <mxCell id="NwU6mXfWbottB9PWC3_L-36" style="edgeStyle=orthogonalEdgeStyle;rounded=0;orthogonalLoop=1;jettySize=auto;html=1;dashed=1;strokeColor=#1c7d85;" edge="1" parent="NwU6mXfWbottB9PWC3_L-41" source="xNWUwTir-geYUf0pCN78-66" target="xNWUwTir-geYUf0pCN78-64">
          <mxGeometry relative="1" as="geometry" />
        </mxCell>
        <mxCell id="xNWUwTir-geYUf0pCN78-66" value="&lt;font color=&quot;#1d7c85&quot;&gt;PRESENTATION&lt;/font&gt;" style="rounded=0;whiteSpace=wrap;html=1;fillColor=none;strokeColor=#1d7c85;fontStyle=3;fontSize=16;dashed=1;" parent="NwU6mXfWbottB9PWC3_L-41" vertex="1">
          <mxGeometry x="182.00514423076925" y="74.5" width="153.72" height="29" as="geometry" />
        </mxCell>
        <mxCell id="NwU6mXfWbottB9PWC3_L-31" style="edgeStyle=orthogonalEdgeStyle;rounded=0;orthogonalLoop=1;jettySize=auto;html=1;dashed=1;strokeColor=#6c8ebf;" edge="1" parent="NwU6mXfWbottB9PWC3_L-41" source="xNWUwTir-geYUf0pCN78-62" target="xNWUwTir-geYUf0pCN78-66">
          <mxGeometry relative="1" as="geometry" />
        </mxCell>
        <mxCell id="xNWUwTir-geYUf0pCN78-76" value="bootstrap&lt;br style=&quot;font-size: 12px;&quot;&gt;server" style="text;html=1;align=left;verticalAlign=middle;resizable=0;points=[];autosize=1;strokeColor=none;fillColor=none;fontStyle=2;fontSize=12;fontColor=#6C8EBF;" parent="NwU6mXfWbottB9PWC3_L-41" vertex="1">
          <mxGeometry x="433.2193269230769" width="68" height="41" as="geometry" />
        </mxCell>
        <mxCell id="xNWUwTir-geYUf0pCN78-77" value="&lt;font color=&quot;#05a794&quot;&gt;providers,&amp;nbsp;services&lt;br&gt;usecases, validators&lt;/font&gt;" style="text;html=1;align=right;verticalAlign=middle;resizable=0;points=[];autosize=1;strokeColor=none;fillColor=none;fontStyle=2;fontSize=12;fontColor=#82B366;" parent="NwU6mXfWbottB9PWC3_L-41" vertex="1">
          <mxGeometry x="40.00182692307692" y="131" width="127" height="41" as="geometry" />
        </mxCell>
        <mxCell id="xNWUwTir-geYUf0pCN78-78" value="&lt;font color=&quot;#ed8f01&quot;&gt;domain models, &lt;br&gt;service/repository/validator contacts&lt;/font&gt;" style="text;html=1;align=left;verticalAlign=middle;resizable=0;points=[];autosize=1;strokeColor=none;fillColor=none;fontStyle=2;fontSize=12;fontColor=#C698DB;" parent="NwU6mXfWbottB9PWC3_L-41" vertex="1">
          <mxGeometry x="530.0028846153846" y="131" width="209" height="41" as="geometry" />
        </mxCell>
        <mxCell id="xNWUwTir-geYUf0pCN78-80" value="rest apis,&amp;nbsp;web handlers&lt;br&gt;resquest/response adapters" style="text;html=1;align=right;verticalAlign=middle;resizable=0;points=[];autosize=1;strokeColor=none;fillColor=none;fontStyle=2;fontSize=12;fontColor=#1d7c85;" parent="NwU6mXfWbottB9PWC3_L-41" vertex="1">
          <mxGeometry y="68.5" width="167" height="41" as="geometry" />
        </mxCell>
        <mxCell id="NwU6mXfWbottB9PWC3_L-28" value="&lt;font color=&quot;#a90a5e&quot;&gt;INFRASTRUCTURE&lt;/font&gt;" style="rounded=0;whiteSpace=wrap;html=1;fillColor=none;strokeColor=#a90a5e;fontStyle=3;fontSize=16;dashed=1;" vertex="1" parent="NwU6mXfWbottB9PWC3_L-41">
          <mxGeometry x="363.2806250000001" y="74.5" width="153.72" height="29" as="geometry" />
        </mxCell>
        <mxCell id="NwU6mXfWbottB9PWC3_L-35" style="edgeStyle=orthogonalEdgeStyle;rounded=0;orthogonalLoop=1;jettySize=auto;html=1;dashed=1;strokeColor=#6c8ebf;" edge="1" parent="NwU6mXfWbottB9PWC3_L-41" source="xNWUwTir-geYUf0pCN78-62" target="NwU6mXfWbottB9PWC3_L-28">
          <mxGeometry relative="1" as="geometry" />
        </mxCell>
        <mxCell id="NwU6mXfWbottB9PWC3_L-39" style="edgeStyle=orthogonalEdgeStyle;rounded=0;orthogonalLoop=1;jettySize=auto;html=1;dashed=1;strokeColor=#05a794;endArrow=none;endFill=0;startArrow=classic;startFill=1;" edge="1" parent="NwU6mXfWbottB9PWC3_L-41" source="xNWUwTir-geYUf0pCN78-64" target="NwU6mXfWbottB9PWC3_L-28">
          <mxGeometry relative="1" as="geometry">
            <Array as="points">
              <mxPoint x="276.00514423076925" y="118" />
              <mxPoint x="440.00514423076925" y="118" />
            </Array>
          </mxGeometry>
        </mxCell>
        <mxCell id="NwU6mXfWbottB9PWC3_L-40" value="&lt;i&gt;&lt;font style=&quot;font-size: 9px;&quot;&gt;IoC&lt;/font&gt;&lt;/i&gt;" style="edgeLabel;html=1;align=center;verticalAlign=middle;resizable=0;points=[];fontColor=#05a794;labelBackgroundColor=none;" vertex="1" connectable="0" parent="NwU6mXfWbottB9PWC3_L-39">
          <mxGeometry x="-0.0414" y="-1" relative="1" as="geometry">
            <mxPoint y="6" as="offset" />
          </mxGeometry>
        </mxCell>
        <mxCell id="NwU6mXfWbottB9PWC3_L-29" value="orm entity,&lt;br&gt;concrete repository" style="text;html=1;align=left;verticalAlign=middle;resizable=0;points=[];autosize=1;strokeColor=none;fillColor=none;fontStyle=2;fontSize=12;fontColor=#a90a5e;" vertex="1" parent="NwU6mXfWbottB9PWC3_L-41">
          <mxGeometry x="530.0028846153846" y="68.5" width="120" height="41" as="geometry" />
        </mxCell>
      </root>
    </mxGraphModel>
  </diagram>
</mxfile>
